<svg width="43" height="43" viewBox="0 0 43 43" fill="none" xmlns="http://www.w3.org/2000/svg">
<g id="2588776_account_seo_user_verified_icon 1">
<g id="Layer_1">
<g id="Group">
<path id="Vector" d="M27.5469 11.4219C27.5469 15.2246 25.4372 19.8069 22.3062 22.3197C22.2525 22.36 22.1988 22.4003 22.145 22.4407C20.7475 23.5291 19.1619 24.1875 17.4688 24.1875C15.7756 24.1875 14.19 23.5291 12.7925 22.4406C12.7387 22.4003 12.685 22.36 12.6313 22.3197C9.50033 19.8069 7.39062 15.2246 7.39062 11.4219C7.39062 5.85874 11.9056 1.34375 17.4688 1.34375C23.0319 1.34375 27.5469 5.85874 27.5469 11.4219Z" stroke="#145082" stroke-width="1.2" stroke-miterlimit="10" stroke-linecap="round" stroke-linejoin="round"/>
<path id="Vector_2" d="M31.5781 41.6559H2.6875V36.2809C2.6875 29.804 6.83973 24.3081 12.6313 22.3193C12.685 22.3597 12.7387 22.4 12.7925 22.4403C14.19 23.5288 15.7756 24.1872 17.4688 24.1872C19.1619 24.1872 20.7475 23.5288 22.145 22.4403C22.1988 22.4 22.2525 22.3597 22.3062 22.3193C24.1875 22.9643 25.8941 23.9856 27.3453 25.2756C24.6578 26.7671 22.8438 29.6293 22.8438 32.9216C22.8438 37.7456 26.754 41.6559 31.5781 41.6559Z" stroke="#145082" stroke-width="1.2" stroke-miterlimit="10" stroke-linecap="round" stroke-linejoin="round"/>
<path id="Vector_3" d="M32.25 41.6289V41.6558H31.5781C31.8065 41.6558 32.0216 41.6424 32.25 41.6289Z" stroke="#145082" stroke-width="1.2" stroke-miterlimit="10" stroke-linecap="round" stroke-linejoin="round"/>
<path id="Vector_4" d="M40.3125 32.9219C40.3125 37.5175 36.765 41.2934 32.25 41.6293C32.0216 41.6428 31.8065 41.6562 31.5781 41.6562C26.754 41.6562 22.8438 37.7459 22.8438 32.9219C22.8438 29.6297 24.6578 26.7675 27.3453 25.2759C28.595 24.5906 30.0328 24.1875 31.5781 24.1875C36.4022 24.1875 40.3125 28.0978 40.3125 32.9219Z" stroke="#145082" stroke-width="1.2" stroke-miterlimit="10" stroke-linecap="round" stroke-linejoin="round"/>
<path id="Vector_5" d="M28.2188 33.5938L30.9062 36.2812L34.9375 30.9062" stroke="#145082" stroke-width="1.2" stroke-miterlimit="10" stroke-linecap="round" stroke-linejoin="round"/>
</g>
</g>
</g>
</svg>
