<svg width="55" height="55" viewBox="0 0 55 55" fill="none" xmlns="http://www.w3.org/2000/svg">
<g id="4511310_binance_bnb_coin_cryptocurrency_exchange_icon 1">
<g id="bnb_change">
<path id="Vector" d="M7.5625 22V17.1875C7.5625 14.6348 8.57656 12.1866 10.3816 10.3816C12.1866 8.57656 14.6348 7.5625 17.1875 7.5625H22" stroke="#145082" stroke-width="1.2" stroke-linecap="round" stroke-linejoin="round"/>
<path id="Vector_2" d="M17.875 3.4375L22 7.5625L17.875 11.6875" stroke="#145082" stroke-width="1.2" stroke-linecap="round" stroke-linejoin="round"/>
<path id="Vector_3" d="M47.4375 33V37.8125C47.4375 40.3652 46.4234 42.8134 44.6184 44.6184C42.8134 46.4234 40.3652 47.4375 37.8125 47.4375H33" stroke="#145082" stroke-width="1.2" stroke-linecap="round" stroke-linejoin="round"/>
<path id="Vector_4" d="M37.125 51.5625L33 47.4375L37.125 43.3125" stroke="#145082" stroke-width="1.2" stroke-linecap="round" stroke-linejoin="round"/>
<path id="Vector_5" d="M21.5762 17.2651C22.0595 14.8212 23.1977 12.5545 24.8692 10.7072C26.5407 8.85989 28.6826 7.50142 31.0662 6.77691C33.4498 6.05241 35.9854 5.9891 38.4022 6.59376C40.819 7.19841 43.0261 8.44831 44.7877 10.2099C46.5493 11.9715 47.7992 14.1786 48.4038 16.5954C49.0085 19.0121 48.9452 21.5478 48.2207 23.9314C47.4962 26.3149 46.1377 28.4569 44.2904 30.1284C42.4431 31.7999 40.1764 32.9381 37.7324 33.4214" stroke="#145082" stroke-width="1.2" stroke-linecap="round" stroke-linejoin="round"/>
<path id="Vector_6" d="M19.9375 48.8125C27.5314 48.8125 33.6875 42.6564 33.6875 35.0625C33.6875 27.4686 27.5314 21.3125 19.9375 21.3125C12.3436 21.3125 6.1875 27.4686 6.1875 35.0625C6.1875 42.6564 12.3436 48.8125 19.9375 48.8125Z" stroke="#145082" stroke-width="1.2" stroke-linecap="round" stroke-linejoin="round"/>
<path id="Vector_7" d="M24.9508 33.0829L20.4229 28.555C20.294 28.4261 20.1191 28.3537 19.9368 28.3537C19.7545 28.3537 19.5797 28.4261 19.4508 28.555L14.9229 33.0829C14.794 33.2118 14.6191 33.2842 14.4368 33.2842C14.2545 33.2842 14.0797 33.2118 13.9508 33.0829L12.9786 32.1108C12.8497 31.9818 12.7773 31.807 12.7773 31.6247C12.7773 31.4424 12.8497 31.2676 12.9786 31.1386L18.9647 25.1526C19.2225 24.8948 19.5722 24.75 19.9368 24.75C20.3014 24.75 20.6511 24.8948 20.9089 25.1526L26.895 31.1386C27.0239 31.2676 27.0963 31.4424 27.0963 31.6247C27.0963 31.807 27.0239 31.9818 26.895 32.1108L25.9229 33.0829C25.794 33.2118 25.6191 33.2842 25.4368 33.2842C25.2545 33.2842 25.0797 33.2118 24.9508 33.0829Z" fill="#145082"/>
<path id="Vector_8" d="M19.9368 45.3753C19.7562 45.3755 19.5774 45.34 19.4106 45.2709C19.2437 45.2017 19.0922 45.1003 18.9647 44.9724L12.9786 38.9864C12.8497 38.8574 12.7773 38.6826 12.7773 38.5003C12.7773 38.318 12.8497 38.1432 12.9786 38.0142L13.9508 37.0421C14.0797 36.9132 14.2545 36.8408 14.4368 36.8408C14.6191 36.8408 14.794 36.9132 14.9229 37.0421L19.4508 41.57C19.5797 41.6989 19.7545 41.7713 19.9368 41.7713C20.1191 41.7713 20.294 41.6989 20.4229 41.57L24.9508 37.0421C25.0797 36.9132 25.2545 36.8408 25.4368 36.8408C25.6191 36.8408 25.794 36.9132 25.9229 37.0421L26.895 38.0142C27.0239 38.1432 27.0963 38.318 27.0963 38.5003C27.0963 38.6826 27.0239 38.8574 26.895 38.9864L20.9089 44.9724C20.7814 45.1003 20.6299 45.2017 20.4631 45.2709C20.2963 45.34 20.1174 45.3755 19.9368 45.3753Z" fill="#145082"/>
<path id="Vector_9" d="M21.3959 34.5756L20.4236 33.6033C20.1552 33.3348 19.7198 33.3348 19.4514 33.6033L18.4791 34.5756C18.2106 34.8441 18.2106 35.2794 18.4791 35.5479L19.4514 36.5201C19.7198 36.7886 20.1552 36.7886 20.4236 36.5201L21.3959 35.5479C21.6644 35.2794 21.6644 34.8441 21.3959 34.5756Z" fill="#145082"/>
<path id="Vector_10" d="M12.4586 34.5764L11.4863 33.6042C11.2178 33.3357 10.7825 33.3357 10.514 33.6042L9.54177 34.5764C9.27329 34.8449 9.27329 35.2802 9.54177 35.5487L10.514 36.521C10.7825 36.7895 11.2178 36.7895 11.4863 36.521L12.4586 35.5487C12.7271 35.2802 12.7271 34.8449 12.4586 34.5764Z" fill="#145082"/>
<path id="Vector_11" d="M30.3334 34.5766L29.3611 33.6043C29.0926 33.3358 28.6574 33.3358 28.3889 33.6043L27.4166 34.5766C27.1481 34.8451 27.1481 35.2804 27.4166 35.5488L28.3889 36.5211C28.6574 36.7896 29.0926 36.7896 29.3611 36.5211L30.3334 35.5488C30.6019 35.2804 30.6019 34.8451 30.3334 34.5766Z" fill="#145082"/>
</g>
</g>
</svg>
