<svg width="89" height="85" viewBox="0 0 89 85" fill="none" xmlns="http://www.w3.org/2000/svg">
<g id="g2859">
<path id="rect2210" d="M0 43.342V45.4627V82.9319H21.3565V77.6549L21.4311 77.6799C27.0026 79.5328 34.9483 81.1605 42.8207 83.9758L43.4089 84.183L44.0136 84.0421C46.4896 83.4665 53.1298 81.4016 61.079 78.848C69.0281 76.2943 78.1119 73.289 84.8544 70.9615C88.0871 69.8435 89.8116 66.2271 88.6237 63.017V63.0085V63C87.3755 59.7161 83.771 58.2679 80.6875 59.2142L59.8943 65.5681C59.8757 63.404 58.7934 61.2716 57.0363 59.8935L56.9286 59.8106L56.8127 59.7444C47.9318 54.4535 47.1633 53.7971 34.6774 47.1607L34.1058 46.8543L33.4597 46.9205C29.178 47.3787 21.9286 48.5738 21.3565 48.6685V43.3418L0 43.342ZM33.2608 51.2285C44.6805 57.3103 45.9816 58.2304 54.4268 63.2653C55.7592 64.3297 56.1106 65.6318 55.2966 66.8027C54.8551 67.4386 54.4212 67.6886 53.7806 67.7967C53.1464 67.9038 52.2561 67.7908 51.254 67.3494C47.4338 65.5849 45.3638 64.4493 41.1556 62.089L39.3082 61.0535L37.2372 64.7482L39.0846 65.792C43.3066 68.1601 45.5534 69.3875 49.4812 71.2015L49.4897 71.21H49.5062C51.1121 71.9262 52.8174 72.2536 54.485 71.9722C55.4184 71.8146 56.3111 71.4228 57.111 70.8621L81.9303 63.2655C82.9164 62.9629 84.2314 63.4556 84.6392 64.4916C85.0243 65.5512 84.5543 66.5774 83.4712 66.952C76.7745 69.2637 67.7088 72.2687 59.7868 74.8136C52.089 77.2865 45.6042 79.2564 43.525 79.7675C35.5804 77.0035 27.7041 75.2964 22.765 73.6538L21.3567 73.1816V52.9766L21.7046 52.9186C21.7046 52.9186 28.9723 51.7317 33.2608 51.2285Z" fill="#0D467B"/>
<path id="ellipse2216" d="M61.9729 0C62.8142 0 63.7021 0.373123 64.7316 1.38345C65.761 2.39378 66.8293 4.01998 67.7387 6.13026C68.7332 8.43783 69.5192 11.3361 70.05 14.5635H53.8959C54.4267 11.3361 55.2127 8.43783 56.2072 6.13026C57.1166 4.01998 58.1849 2.39378 59.2143 1.38345C60.2437 0.373122 61.1317 0 61.9729 0ZM53.8628 1.47458C53.3069 2.39355 52.7795 3.36753 52.3136 4.44858C51.076 7.3203 50.1816 10.7824 49.613 14.5635H40.4507C42.8689 8.51763 47.7451 3.75172 53.8628 1.47458ZM70.0831 1.47458C76.1993 3.75178 81.0787 8.51738 83.4951 14.5635H74.3329C73.7643 10.7824 72.8698 7.3203 71.6322 4.44858C71.1664 3.36753 70.6389 2.39355 70.0831 1.47458ZM39.1998 18.805H39.4815H49.1243C49.0206 20.2386 48.942 21.6873 48.942 23.1873C48.942 24.6874 49.0206 26.136 49.1243 27.5696H39.4815H39.1998C38.9293 26.1496 38.7773 24.6874 38.7773 23.1873C38.7773 21.6872 38.9293 20.2248 39.1998 18.805ZM53.374 18.805H70.5719C70.6852 20.2306 70.7624 21.6836 70.7624 23.1873C70.7624 24.6911 70.6852 26.144 70.5719 27.5696H53.374C53.2607 26.144 53.1835 24.6911 53.1835 23.1873C53.1835 21.6836 53.2607 20.2306 53.374 18.805ZM74.8216 18.805H84.4644H84.7377C85.0081 20.2248 85.1602 21.6872 85.1602 23.1873C85.1602 24.6874 85.0081 26.1496 84.7377 27.5696H84.4644H74.8216C74.9252 26.136 75.0039 24.6874 75.0039 23.1873C75.0039 21.6873 74.9253 20.2386 74.8216 18.805ZM40.4507 31.8111H49.613C50.1816 35.5922 51.076 39.0543 52.3136 41.926C52.7795 43.0071 53.3069 43.9811 53.8628 44.9C47.7457 42.6212 42.8687 37.8582 40.4507 31.8111ZM53.8959 31.8111H70.05C69.5192 35.0385 68.7332 37.9368 67.7387 40.2444C66.8293 42.3546 65.761 43.9891 64.7316 44.9994C63.7021 46.0098 62.8142 46.3829 61.9729 46.3829C61.1317 46.3829 60.2437 46.0098 59.2143 44.9994C58.1849 43.9891 57.1166 42.3546 56.2072 40.2444C55.2127 37.9368 54.4267 35.0385 53.8959 31.8111ZM74.3329 31.8111H83.4951C81.0788 37.8585 76.1988 42.6211 70.0831 44.9C70.6389 43.9811 71.1664 43.0071 71.6322 41.926C72.8698 39.0543 73.7643 35.5922 74.3329 31.8111Z" fill="#0D467B"/>
</g>
</svg>
