<svg width="83" height="83" viewBox="0 0 83 83" fill="none" xmlns="http://www.w3.org/2000/svg">
<g id="2674067_essential_object_responsive_ui_web_icon (1) 1" clip-path="url(#clip0_2_45)">
<g id="49-Responsive">
<path id="Vector" d="M77.8125 0H5.1875C3.81169 0 2.49223 0.546539 1.51938 1.51938C0.546539 2.49223 0 3.81169 0 5.1875L0 60.5208C0 61.8966 0.546539 63.2161 1.51938 64.1889C2.49223 65.1618 3.81169 65.7083 5.1875 65.7083H27.6667V73.1092L23.655 74.4406C23.3116 74.5566 23.0132 74.7776 22.8022 75.0724C22.5912 75.3672 22.4782 75.7208 22.4792 76.0833V79.5417H19.0208V83H48.4167V79.5417H25.9375V77.3283L29.6725 76.0833H48.4167V72.625H31.125V65.7083H48.4167V62.25H5.1875C4.7289 62.25 4.28908 62.0678 3.96479 61.7435C3.64051 61.4193 3.45833 60.9794 3.45833 60.5208V50.1458H48.4167V46.6875H3.45833V5.1875C3.45833 4.7289 3.64051 4.28908 3.96479 3.96479C4.28908 3.64051 4.7289 3.45833 5.1875 3.45833H77.8125C78.2711 3.45833 78.7109 3.64051 79.0352 3.96479C79.3595 4.28908 79.5417 4.7289 79.5417 5.1875V31.125H83V5.1875C83 3.81169 82.4535 2.49223 81.4806 1.51938C80.5078 0.546539 79.1883 0 77.8125 0Z" fill="#0D467B"/>
<path id="Vector_2" d="M79.5417 34.5833H55.3333C54.4161 34.5833 53.5365 34.9477 52.8879 35.5962C52.2394 36.2448 51.875 37.1244 51.875 38.0416V79.5416C51.875 80.4589 52.2394 81.3385 52.8879 81.9871C53.5365 82.6356 54.4161 83 55.3333 83H79.5417C80.4589 83 81.3385 82.6356 81.9871 81.9871C82.6356 81.3385 83 80.4589 83 79.5416V38.0416C83 37.1244 82.6356 36.2448 81.9871 35.5962C81.3385 34.9477 80.4589 34.5833 79.5417 34.5833ZM79.5417 79.5416H55.3333V74.3541H79.5417V79.5416ZM79.5417 70.8958H55.3333V46.6875H79.5417V70.8958ZM79.5417 43.2291H55.3333V38.0416H79.5417V43.2291Z" fill="#0D467B"/>
</g>
</g>
<defs>
<clipPath id="clip0_2_45">
<rect width="83" height="83" fill="white"/>
</clipPath>
</defs>
</svg>
