<svg width="92" height="88" viewBox="0 0 92 88" fill="none" xmlns="http://www.w3.org/2000/svg">
<g id="Group 1000006099">
<path id="Vector" d="M79 2V51.1935H78.7442C77.7548 51.2063 76.8049 51.5792 76.0764 52.241C75.5671 52.7 75.1584 53.2573 74.8756 53.8785C74.5927 54.4998 74.4417 55.1717 74.4319 55.8528C74.4128 55.1663 74.2504 54.4911 73.9548 53.8696C73.6592 53.248 73.2369 52.6936 72.7143 52.241C71.994 51.6217 71.0742 51.276 70.1196 51.2658C69.5744 51.2696 69.0353 51.3801 68.5336 51.5908C68.0318 51.8016 67.5772 52.1085 67.196 52.4938C66.7297 52.9736 66.3638 53.5396 66.1192 54.1594C65.8747 54.7792 65.7563 55.4406 65.7708 56.1057V40.2135C65.7723 39.6881 65.6984 39.1652 65.5515 38.6604C65.4042 38.2014 65.1952 37.7641 64.9302 37.3601C64.5966 36.8397 64.1472 36.4015 63.6162 36.0789C63.0852 35.7562 62.4866 35.5577 61.8662 35.4985C61.2458 35.4393 60.6199 35.5209 60.0362 35.7371C59.4525 35.9533 58.9265 36.2984 58.4983 36.7461C57.9687 37.2976 57.5803 37.9664 57.3654 38.6965C57.1888 39.1954 57.1023 39.7211 57.1096 40.2496V54.697C57.1065 53.4617 56.6523 52.2689 55.8306 51.338C55.4501 50.9004 54.9794 50.5484 54.4499 50.3054C53.9204 50.0625 53.3445 49.9342 52.7608 49.9294C52.111 49.9401 51.4727 50.1009 50.897 50.3989C50.1442 50.8411 49.5219 51.4708 49.0923 52.225C48.6626 52.9792 48.4406 53.8315 48.4485 54.697V61.0539C48.29 63.7058 48.3879 66.3665 48.7409 69H2V2H79Z" stroke="#0D467B" stroke-width="3" stroke-linecap="round" stroke-linejoin="round"/>
<path id="Vector_2" d="M2 19H79" stroke="#0D467B" stroke-width="3" stroke-linecap="round" stroke-linejoin="round"/>
<path id="Vector_3" d="M11 13C12.6569 13 14 11.6569 14 10C14 8.34315 12.6569 7 11 7C9.34315 7 8 8.34315 8 10C8 11.6569 9.34315 13 11 13Z" stroke="#0D467B" stroke-width="3" stroke-linecap="round" stroke-linejoin="round"/>
<path id="Vector_4" d="M26 13C27.6569 13 29 11.6569 29 10C29 8.34315 27.6569 7 26 7C24.3431 7 23 8.34315 23 10C23 11.6569 24.3431 13 26 13Z" stroke="#0D467B" stroke-width="3" stroke-linecap="round" stroke-linejoin="round"/>
<path id="Vector_5" d="M42 28H9V53H42V28Z" stroke="#0D467B" stroke-width="3" stroke-linecap="round" stroke-linejoin="round"/>
<path id="Vector_6" d="M9 59H39" stroke="#0D467B" stroke-width="3" stroke-linecap="round" stroke-linejoin="round"/>
<path id="Vector_7" d="M34 49H18L19.7539 38H32.2461L34 49Z" stroke="#0D467B" stroke-width="3" stroke-linecap="round" stroke-linejoin="round"/>
<path id="Vector_8" d="M22 40V34.8665C22.0557 34.4319 22.1907 34.0136 22.3972 33.6356C22.6037 33.2577 22.8775 32.9275 23.2029 32.6643C23.5284 32.4011 23.8989 32.21 24.2931 32.1021C24.6874 31.9942 25.0976 31.9715 25.5 32.0355C26.3113 31.9166 27.1334 32.147 27.7884 32.6768C28.4434 33.2066 28.8787 33.9932 29 34.8665V40" stroke="#0D467B" stroke-width="3" stroke-linecap="round" stroke-linejoin="round"/>
<path id="Vector_9" d="M74 33.5C74 34.9587 73.3926 36.3576 72.3116 37.3891C71.2305 38.4205 69.7642 39 68.2353 39H65.1283C64.9775 38.5462 64.7634 38.1138 64.492 37.7143C64.1526 37.2035 63.6962 36.7728 63.1572 36.4546C62.6182 36.1363 62.0106 35.9388 61.38 35.877C60.7495 35.8151 60.1124 35.8904 59.5168 36.0973C58.9211 36.3042 58.3824 36.6373 57.9412 37.0714C57.3987 37.6168 57.0008 38.2781 56.7807 39H51.7647C50.2358 39 48.7695 38.4205 47.6884 37.3891C46.6074 36.3576 46 34.9587 46 33.5C46 32.0413 46.6074 30.6424 47.6884 29.6109C48.7695 28.5795 50.2358 28 51.7647 28H68.2353C69.7642 28 71.2305 28.5795 72.3116 29.6109C73.3926 30.6424 74 32.0413 74 33.5Z" stroke="#0D467B" stroke-width="3" stroke-linecap="round" stroke-linejoin="round"/>
<path id="Vector_10" d="M89.9307 60.6275C89.9307 60.6275 91.3577 78.1708 81.2593 86H56.7451C51.807 81.4168 48.8119 75.1456 48.3663 68.4567C48.0129 65.8139 47.9149 63.1437 48.0736 60.4825V54.2481C48.0658 53.3795 48.288 52.5241 48.7182 51.7673C49.1483 51.0104 49.7713 50.3785 50.5251 49.9348C51.1014 49.6356 51.7405 49.4743 52.3911 49.4635C52.9755 49.4684 53.5521 49.5971 54.0822 49.8409C54.6123 50.0847 55.0836 50.438 55.4645 50.8772C56.2872 51.8113 56.742 53.0083 56.7451 54.2481V39.7495C56.7377 39.2191 56.8244 38.6916 57.0012 38.1909C57.2163 37.4582 57.6052 36.7871 58.1354 36.2336C58.5667 35.7929 59.0933 35.4549 59.6755 35.2449C60.2577 35.035 60.8803 34.9585 61.4967 35.0213C62.113 35.0841 62.7069 35.2845 63.2337 35.6075C63.7606 35.9305 64.2067 36.3676 64.5384 36.886C64.8037 37.2915 65.0129 37.7303 65.1604 38.1909C65.3075 38.6975 65.3814 39.2223 65.3799 39.7495V55.6979C65.3654 55.0305 65.484 54.3668 65.7288 53.7448C65.9737 53.1228 66.34 52.5548 66.8069 52.0733C67.1885 51.6866 67.6436 51.3786 68.146 51.1671C68.6484 50.9556 69.1881 50.8447 69.7339 50.8409C70.6897 50.8512 71.6106 51.1981 72.3317 51.8196C72.855 52.2738 73.2778 52.8302 73.5737 53.4539C73.8696 54.0777 74.0323 54.7553 74.0514 55.4442C74.0612 54.7607 74.2124 54.0863 74.4956 53.4629C74.7788 52.8395 75.1879 52.2802 75.6979 51.8196C76.4735 51.2384 77.4353 50.9552 78.4054 51.0221H78.6981C79.6974 51.076 80.6389 51.5035 81.3325 52.2183C81.7993 52.6998 82.1656 53.2678 82.4105 53.8897C82.6554 54.5117 82.7739 55.1755 82.7594 55.8429C82.7152 54.537 83.1289 53.2562 83.9302 52.2183C84.2048 51.8146 84.5753 51.4839 85.0092 51.2553C85.443 51.0267 85.9269 50.9071 86.4182 50.9071C86.9096 50.9071 87.3935 51.0267 87.8273 51.2553C88.2611 51.4839 88.6316 51.8146 88.9063 52.2183C89.6141 53.2009 89.9859 54.3822 89.9673 55.5892L89.9307 60.6275Z" stroke="#0D467B" stroke-width="3" stroke-linecap="round" stroke-linejoin="round"/>
<path id="Vector_11" d="M39 9H69" stroke="#0D467B" stroke-width="3" stroke-linecap="round" stroke-linejoin="round"/>
</g>
</svg>
