<svg width="86" height="86" viewBox="0 0 86 86" fill="none" xmlns="http://www.w3.org/2000/svg">
<g id="globe_sphere">
<g id="Group">
<path id="Vector" d="M43.0001 21.1117C34.8894 21.1117 26.7817 20.1775 18.9112 18.333C18.1135 18.1462 17.6182 17.3514 17.805 16.5507C17.9919 15.756 18.7688 15.2607 19.5903 15.4446C36.7695 19.4718 55.0282 18.9647 72.0147 13.9678C72.8154 13.7424 73.6279 14.1842 73.8563 14.9701C74.0876 15.7589 73.6398 16.5804 72.8539 16.8117C63.1537 19.6645 53.1095 21.1117 43.0001 21.1117Z" fill="#0D467B"/>
<path id="Vector_2" d="M72.4327 72.1182C72.2933 72.1182 72.1539 72.0975 72.0116 72.056C53.1539 66.5075 32.846 66.5075 13.9883 72.056C13.1906 72.2784 12.3751 71.8395 12.1467 71.0536C11.9154 70.2648 12.3632 69.4433 13.1491 69.212C32.5584 63.5004 53.4445 63.5004 72.8538 69.212C73.6397 69.4433 74.0875 70.2648 73.8562 71.0536C73.6664 71.7031 73.0733 72.1182 72.4327 72.1182Z" fill="#0D467B"/>
<path id="Vector_3" d="M41.1881 84.8027C40.8975 84.8027 40.6098 84.7197 40.3518 84.5447C26.5117 75.0995 18.2498 59.5691 18.2498 43.0008C18.2498 29.5759 23.5314 16.9398 33.1278 7.42048C33.712 6.83627 34.6521 6.84813 35.2244 7.42641C35.8027 8.00765 35.7968 8.94772 35.2185 9.52303C26.1885 18.4819 21.2153 30.3706 21.2153 43.0008C21.2153 58.5875 28.9939 73.2046 42.0273 82.0952C42.7035 82.5548 42.8755 83.4801 42.4158 84.1562C42.1252 84.5773 41.6596 84.8027 41.1881 84.8027Z" fill="#0D467B"/>
<path id="Vector_4" d="M44.9392 84.8028C44.4676 84.8028 44.0021 84.5774 43.7144 84.1563C43.2548 83.4772 43.4268 82.5549 44.1029 82.0953C57.1363 73.2046 64.9149 58.5876 64.9149 43.0009C64.9149 27.4141 57.1363 12.7971 44.1029 3.90644C43.4268 3.44678 43.2548 2.52154 43.7144 1.84541C44.177 1.16927 45.1023 1.0032 45.7754 1.45692C59.6155 10.9021 67.8774 26.4325 67.8774 43.0009C67.8774 59.5692 59.6155 75.0996 45.7754 84.5448C45.5204 84.7168 45.2298 84.8028 44.9392 84.8028Z" fill="#0D467B"/>
<g id="Group_2">
<path id="Vector_5" d="M43.0003 84.3588C42.1819 84.3588 41.5176 83.6945 41.5176 82.8761V3.12143C41.5176 2.30295 42.1819 1.63867 43.0003 1.63867C43.8188 1.63867 44.4831 2.30295 44.4831 3.12143V82.8761C44.4831 83.6975 43.8188 84.3588 43.0003 84.3588Z" fill="#0D467B"/>
</g>
<g id="Group_3">
<path id="Vector_6" d="M84.3599 44.4831H7.57083C6.75235 44.4831 6.08807 43.8188 6.08807 43.0003C6.08807 42.1819 6.75235 41.5176 7.57083 41.5176H84.3629C85.1814 41.5176 85.8457 42.1819 85.8457 43.0003C85.8457 43.8188 85.1814 44.4831 84.3599 44.4831Z" fill="#0D467B"/>
</g>
<path id="Vector_7" d="M43 86C19.2907 86 0 66.7093 0 43C0 32.5584 3.78993 22.4816 10.6759 14.6348C11.2156 14.018 12.1497 13.9587 12.7695 14.4984C13.3834 15.0381 13.4427 15.9752 12.9059 16.5921C6.49745 23.8961 2.96552 33.2761 2.96552 43C2.96552 65.0753 20.9247 83.0345 43 83.0345C65.0753 83.0345 83.0345 65.0753 83.0345 43C83.0345 20.9247 65.0753 2.96552 43 2.96552C33.8721 2.96552 25.2781 5.95476 18.1519 11.61C17.5114 12.1201 16.5802 12.0163 16.0701 11.3698C15.5601 10.7292 15.6668 9.79807 16.3103 9.288C23.9643 3.21166 33.193 0 43 0C66.7093 0 86 19.2907 86 43C86 66.7093 66.7093 86 43 86Z" fill="#0D467B"/>
</g>
</g>
</svg>
